<?xml version="1.0" encoding="UTF-8" standalone="no"?>
<!DOCTYPE svg PUBLIC "-//W3C//DTD SVG 1.1//EN" "http://www.w3.org/Graphics/SVG/1.1/DTD/svg11.dtd">
<svg width="100%" height="100%" viewBox="0 0 3000 3000" version="1.1" xmlns="http://www.w3.org/2000/svg" xmlns:xlink="http://www.w3.org/1999/xlink" xml:space="preserve" xmlns:serif="http://www.serif.com/" style="fill-rule:evenodd;clip-rule:evenodd;stroke-linejoin:round;stroke-miterlimit:2;">
    <g transform="matrix(1.711498,0,0,1.711498,-1067.247128,-1067.247128)">
        <g transform="matrix(1,0,0,1,260.331199,189.029937)">
            <path d="M827.922,1111.598L1102.963,1270.393L825.87,1430.372L965.098,1510.755L1239.953,1352.067L1515.473,1511.139L1651.03,1432.875L1373.292,1272.522L1650.673,1112.376L1513.238,1033.027L1238.921,1191.404L962.857,1032.019L827.922,1111.598Z" style="fill:rgb(77,77,119);"/>
        </g>
        <g transform="matrix(1,0,0,1,260.331199,189.029937)">
            <path d="M964.467,1510.391L964.467,1669.263L826.125,1589.391L826.125,1430.843L964.467,1510.391Z" style="fill:rgb(29,29,62);"/>
        </g>
        <g transform="matrix(1,0,0,1,260.331199,189.029937)">
            <path d="M1239.522,1351.797L1239.555,1510.833L1514.873,1669.788L1514.899,1510.517L1239.522,1351.797Z" style="fill:rgb(29,29,62);"/>
        </g>
        <g transform="matrix(1,0,0,1,260.331199,189.029937)">
            <path d="M826.125,1112.853L826.365,1272.278L964.065,1351.779L1101.833,1272.257L826.125,1112.853Z" style="fill:rgb(29,29,62);"/>
        </g>
        <g transform="matrix(1,0,0,1,260.331199,189.029937)">
            <path d="M964.12,1669.87L964.146,1510.785L1239.522,1351.797L1239.522,1510.814L964.12,1669.87Z" style="fill:rgb(39,40,78);"/>
        </g>
        <g transform="matrix(1,0,0,1,260.331199,189.029937)">
            <path d="M1514.899,1669.773L1652.91,1590.092L1651.03,1432.875L1514.899,1511.47L1514.899,1669.773Z" style="fill:rgb(39,40,78);"/>
        </g>
        <g transform="matrix(1,0,0,1,260.331199,189.029937)">
            <path d="M1651.03,1112.582L1652.91,1272.196L1512.467,1352.875L1373.332,1272.546L1651.03,1112.582Z" style="fill:rgb(39,40,78);"/>
        </g>
        <g transform="matrix(1,0,0,1,-16.86204,30.355973)">
            <path d="M1103.064,1430.966L966.162,1510.006L1103.318,1590.111L1241.172,1510.521L1103.064,1430.966Z" style="fill:rgb(255,210,0);"/>
        </g>
        <g transform="matrix(1,0,0,1,-16.86204,30.355973)">
            <path d="M1103.667,1431.133L1102.803,1589.814L1241.172,1510.521L1103.667,1431.133Z" style="fill:rgb(255,164,0);"/>
        </g>
        <g transform="matrix(1,0,0,1,-16.86204,30.355973)">
            <path d="M1241.172,1191.937L1100.956,1113.925L966.162,1192.34L1100.835,1272.961L1241.172,1191.937Z" style="fill:rgb(255,210,0);"/>
        </g>
        <g transform="matrix(1,0,0,1,-16.86204,30.355973)">
            <path d="M827.602,1271.746L965.27,1351.229L827.416,1430.819L689.748,1351.336L827.602,1271.746Z" style="fill:rgb(255,210,0);"/>
        </g>
        <g transform="matrix(1,0,0,1,-16.86204,30.355973)">
            <path d="M966.162,1191.748L827.704,1271.687L965.27,1351.229L965.27,1509.491L1103.667,1430.618L1103.667,1274.596L966.162,1191.748Z" style="fill:rgb(255,107,0);"/>
        </g>
        <g transform="matrix(1,0,0,1,-16.86204,30.355973)">
            <path d="M828.353,1430.442L827.509,1590.573L965.27,1510.409L966.162,1350.877L828.353,1430.442Z" style="fill:rgb(255,164,0);"/>
        </g>
        <g transform="matrix(1,0,0,1,-16.86204,30.355973)">
            <path d="M689.748,1351.336L689.112,1510.669L827.704,1590.685L827.704,1430.985L689.748,1351.336Z" style="fill:rgb(255,130,0);"/>
        </g>
        <g transform="matrix(1,0,0,1,-16.86204,30.355973)">
            <path d="M1515.023,1193.121L1515.644,1351.974L1377.08,1273.278L1515.023,1193.121Z" style="fill:rgb(255,164,0);"/>
        </g>
        <g transform="matrix(1,0,0,1,-16.86204,30.355973)">
            <path d="M1239.145,1193.641L1376.634,1273.02L1515.023,1193.121L1377.214,1113.557L1239.145,1193.641Z" style="fill:rgb(255,210,0);"/>
        </g>
        <g transform="matrix(1,0,0,1,-16.86204,30.355973)">
            <path d="M1928.223,1431.402L1928.223,1591.549L1788.139,1510.671L1928.223,1431.402Z" style="fill:rgb(0,138,255);"/>
        </g>
        <g transform="matrix(1,0,0,1,-16.86204,30.355973)">
            <path d="M1928.703,1431.679L1928.223,1591.549L2066.914,1511.475L1928.703,1431.679Z" style="fill:rgb(79,228,255);"/>
        </g>
        <g transform="matrix(1,0,0,1,-16.86204,30.355973)">
            <path d="M2066.914,1511.475L2066.914,1349.72L2202.67,1273.504L2066.914,1190.818L1928.223,1271.256L1926.83,1430.598L2066.914,1511.475Z" style="fill:rgb(0,88,196);"/>
        </g>
        <g transform="matrix(1,0,0,1,-16.86204,30.355973)">
            <path d="M2202.67,1273.504L2344.612,1351.146L2205.763,1431.311L2064.75,1352.396L2202.67,1273.504Z" style="fill:rgb(79,228,255);"/>
        </g>
        <g transform="matrix(1,0,0,1,-16.86204,30.355973)">
            <path d="M2202.67,1591.399L2202.67,1429.708L2065.521,1350.524L2066.914,1511.475L2202.67,1591.399Z" style="fill:rgb(0,138,255);"/>
        </g>
        <g transform="matrix(1,0,0,1,-16.86204,30.355973)">
            <path d="M2202.104,1431.697L2344.612,1351.146L2342.857,1510.462L2204.681,1592.56L2202.104,1431.697Z" style="fill:rgb(0,106,255);"/>
        </g>
        <g transform="matrix(1,0,0,1,-16.86204,30.355973)">
            <path d="M1928.223,1110.744L2064.75,1192.067L1925.901,1272.231L1787.861,1192.534L1928.223,1110.744Z" style="fill:rgb(79,228,255);"/>
        </g>
        <g transform="matrix(1,0,0,1,-16.86204,30.355973)">
            <path d="M1515.644,1193.199L1650.526,1271.073L1787.861,1192.534L1652.14,1114.176L1515.644,1193.199Z" style="fill:rgb(79,228,255);"/>
        </g>
        <g transform="matrix(1,0,0,1,-16.86204,30.355973)">
            <path d="M1515.644,1192.982L1515.644,1349.699L1651.752,1270.365L1515.644,1192.982Z" style="fill:rgb(0,138,255);"/>
        </g>
        <g transform="matrix(1,0,0,1,-16.86204,30.355973)">
            <path d="M965.367,1510.465L827.704,1590.164L1103.064,1748.81L1104.113,1589.652L965.367,1510.465Z" style="fill:rgb(255,107,0);"/>
        </g>
        <g transform="matrix(1,0,0,1,-16.86204,30.355973)">
            <path d="M2068.141,1510.767L2203.863,1589.126L1928.705,1749.573L1926.728,1590.685L2068.141,1510.767Z" style="fill:rgb(0,88,196);"/>
        </g>
    </g>
</svg>
